<svg width="32" height="32" xmlns="http://www.w3.org/2000/svg">

 <g>
  <title>background</title>
  <rect fill="none" id="canvas_background" height="402" width="582" y="-1" x="-1"/>
 </g>
 <g>
  <title>Layer 1</title>
  <path id="clip_2_" fill="#0000ff" d="m29.363,4.637c-3.514,-3.516 -9.213,-3.516 -12.727,0l-14.59,14.417c-2.729,2.729 -2.729,7.171 0,9.9c2.729,2.729 7.17,2.729 9.898,0l14.59,-14.418c1.953,-1.953 1.953,-5.118 0,-7.071c-1.953,-1.952 -5.119,-1.952 -7.07,0l-10.968,10.968c-0.391,0.392 -0.391,1.023 0,1.415c0.391,0.391 1.023,0.391 1.414,0l10.969,-10.969c1.17,-1.169 3.072,-1.169 4.242,0c1.17,1.17 1.17,3.073 0,4.243l-14.59,14.417c-1.953,1.953 -5.117,1.953 -7.07,0c-1.953,-1.952 -1.953,-5.118 0,-7.07l14.447,-14.277c2.734,-2.734 7.168,-2.734 9.898,0c2.736,2.735 2.736,7.165 0.002,9.899l-10.826,10.827c-0.393,0.392 -0.393,1.023 0,1.414c0.391,0.392 1.023,0.392 1.414,0l10.967,-10.968c3.516,-3.514 3.516,-9.213 0,-12.727z"/>
 </g>
</svg>