<svg width="49.99999999999999" height="49.99999999999999" xmlns="http://www.w3.org/2000/svg">

 <g>
  <title>background</title>
  <rect fill="none" id="canvas_background" height="402" width="582" y="-1" x="-1"/>
 </g>
 <g>
  <title>Layer 1</title>
  <rect id="svg_1" width="50" height="50" fill="none"/>
  <path id="svg_2" stroke-width="2" stroke-miterlimit="10" stroke-linecap="round" stroke="#0000bf" fill="none" d="m19,6l0,-3c0,-1.104 0.896,-2 2,-2l8,0c1.104,0 2,0.896 2,2l0,3"/>
  <path id="svg_3" stroke-width="2" stroke-miterlimit="10" stroke-linecap="round" stroke="#0000bf" fill="none" d="m40,6l-3.693,41.426c-0.078,0.873 -0.838,1.574 -1.699,1.574l-19.217,0c-0.86,0 -1.621,-0.701 -1.699,-1.574l-3.692,-41.426"/>
  <line id="svg_4" y2="6" y1="6" x2="42" x1="8" stroke-width="2" stroke-miterlimit="10" stroke-linecap="round" stroke="#0000bf" fill="none"/>
  <line id="svg_5" y2="44" y1="11" x2="25" x1="25" stroke-width="2" stroke-miterlimit="10" stroke-linecap="round" stroke="#0000bf" fill="none"/>
  <line id="svg_6" y2="44" y1="11" x2="31" x1="31" stroke-width="2" stroke-miterlimit="10" stroke-linecap="round" stroke="#0000bf" fill="none"/>
  <line id="svg_7" y2="44" y1="11" x2="19" x1="19" stroke-width="2" stroke-miterlimit="10" stroke-linecap="round" stroke="#0000bf" fill="none"/>
 </g>
</svg>